<mxfile host="app.diagrams.net" modified="2022-09-05T13:04:30.660Z" agent="5.0 (Macintosh; Intel Mac OS X 10_15_7) AppleWebKit/537.36 (KHTML, like Gecko) Chrome/104.0.0.0 Safari/537.36" etag="nyxHUQKPdSEfZvAreLfz" version="20.2.8" type="github">
  <diagram id="PQlHHl4Ataq9H4FQT5qu" name="Page-1">
    <mxGraphModel dx="1298" dy="733" grid="1" gridSize="10" guides="1" tooltips="1" connect="1" arrows="1" fold="1" page="1" pageScale="1" pageWidth="850" pageHeight="1100" math="0" shadow="0">
      <root>
        <mxCell id="0" />
        <mxCell id="1" parent="0" />
        <mxCell id="vLS6BRIMxcKvHYnKIGK4-18" style="edgeStyle=orthogonalEdgeStyle;rounded=0;orthogonalLoop=1;jettySize=auto;html=1;exitX=0;exitY=0.75;exitDx=0;exitDy=0;strokeColor=#66B2FF;strokeWidth=2;" edge="1" parent="1" source="vLS6BRIMxcKvHYnKIGK4-1">
          <mxGeometry relative="1" as="geometry">
            <mxPoint x="80" y="320" as="targetPoint" />
          </mxGeometry>
        </mxCell>
        <mxCell id="vLS6BRIMxcKvHYnKIGK4-19" style="edgeStyle=orthogonalEdgeStyle;rounded=0;orthogonalLoop=1;jettySize=auto;html=1;exitX=0.5;exitY=1;exitDx=0;exitDy=0;entryX=0.5;entryY=0;entryDx=0;entryDy=0;startArrow=none;startFill=0;endArrow=none;endFill=0;dashed=1;" edge="1" parent="1" source="vLS6BRIMxcKvHYnKIGK4-1" target="vLS6BRIMxcKvHYnKIGK4-4">
          <mxGeometry relative="1" as="geometry" />
        </mxCell>
        <mxCell id="vLS6BRIMxcKvHYnKIGK4-20" style="edgeStyle=orthogonalEdgeStyle;rounded=0;orthogonalLoop=1;jettySize=auto;html=1;exitX=0.5;exitY=1;exitDx=0;exitDy=0;entryX=0.5;entryY=0;entryDx=0;entryDy=0;startArrow=none;startFill=0;endArrow=none;endFill=0;dashed=1;" edge="1" parent="1" source="vLS6BRIMxcKvHYnKIGK4-1" target="vLS6BRIMxcKvHYnKIGK4-9">
          <mxGeometry relative="1" as="geometry" />
        </mxCell>
        <mxCell id="vLS6BRIMxcKvHYnKIGK4-1" value="广告引擎" style="rounded=1;whiteSpace=wrap;html=1;fillColor=#dae8fc;strokeColor=#6c8ebf;" vertex="1" parent="1">
          <mxGeometry x="200" y="275" width="120" height="60" as="geometry" />
        </mxCell>
        <mxCell id="vLS6BRIMxcKvHYnKIGK4-17" style="edgeStyle=orthogonalEdgeStyle;rounded=0;orthogonalLoop=1;jettySize=auto;html=1;exitX=0;exitY=0.5;exitDx=0;exitDy=0;strokeColor=#97D077;strokeWidth=2;" edge="1" parent="1" source="vLS6BRIMxcKvHYnKIGK4-2" target="vLS6BRIMxcKvHYnKIGK4-1">
          <mxGeometry relative="1" as="geometry" />
        </mxCell>
        <mxCell id="vLS6BRIMxcKvHYnKIGK4-24" style="edgeStyle=orthogonalEdgeStyle;rounded=0;orthogonalLoop=1;jettySize=auto;html=1;exitX=0.5;exitY=1;exitDx=0;exitDy=0;entryX=0.5;entryY=0;entryDx=0;entryDy=0;startArrow=none;startFill=0;endArrow=none;endFill=0;dashed=1;" edge="1" parent="1" source="vLS6BRIMxcKvHYnKIGK4-2" target="vLS6BRIMxcKvHYnKIGK4-5">
          <mxGeometry relative="1" as="geometry" />
        </mxCell>
        <mxCell id="vLS6BRIMxcKvHYnKIGK4-34" style="edgeStyle=orthogonalEdgeStyle;rounded=0;orthogonalLoop=1;jettySize=auto;html=1;exitX=1;exitY=0.75;exitDx=0;exitDy=0;strokeColor=#FFB570;strokeWidth=2;startArrow=none;startFill=0;endArrow=classic;endFill=1;entryX=0;entryY=0;entryDx=0;entryDy=0;" edge="1" parent="1" source="vLS6BRIMxcKvHYnKIGK4-2" target="vLS6BRIMxcKvHYnKIGK4-28">
          <mxGeometry relative="1" as="geometry">
            <mxPoint x="710" y="320" as="targetPoint" />
            <Array as="points">
              <mxPoint x="670" y="320" />
              <mxPoint x="670" y="320" />
            </Array>
          </mxGeometry>
        </mxCell>
        <mxCell id="vLS6BRIMxcKvHYnKIGK4-2" value="投放平台" style="rounded=1;whiteSpace=wrap;html=1;fillColor=#d5e8d4;strokeColor=#82b366;" vertex="1" parent="1">
          <mxGeometry x="500" y="275" width="120" height="60" as="geometry" />
        </mxCell>
        <mxCell id="vLS6BRIMxcKvHYnKIGK4-12" style="edgeStyle=orthogonalEdgeStyle;rounded=0;orthogonalLoop=1;jettySize=auto;html=1;entryX=0.5;entryY=0;entryDx=0;entryDy=0;strokeColor=#FFB570;strokeWidth=2;exitX=1;exitY=0.5;exitDx=0;exitDy=0;" edge="1" parent="1" source="vLS6BRIMxcKvHYnKIGK4-32" target="vLS6BRIMxcKvHYnKIGK4-2">
          <mxGeometry relative="1" as="geometry">
            <mxPoint x="440" y="190" as="sourcePoint" />
          </mxGeometry>
        </mxCell>
        <mxCell id="vLS6BRIMxcKvHYnKIGK4-33" style="edgeStyle=orthogonalEdgeStyle;rounded=0;orthogonalLoop=1;jettySize=auto;html=1;exitX=1;exitY=0.5;exitDx=0;exitDy=0;entryX=0;entryY=0.5;entryDx=0;entryDy=0;strokeColor=#FFB570;strokeWidth=2;startArrow=none;startFill=0;endArrow=classic;endFill=1;" edge="1" parent="1" source="vLS6BRIMxcKvHYnKIGK4-3" target="vLS6BRIMxcKvHYnKIGK4-32">
          <mxGeometry relative="1" as="geometry" />
        </mxCell>
        <mxCell id="vLS6BRIMxcKvHYnKIGK4-3" value="日志服务" style="rounded=1;whiteSpace=wrap;html=1;fillColor=#ffe6cc;strokeColor=#d79b00;" vertex="1" parent="1">
          <mxGeometry x="200" y="160" width="120" height="60" as="geometry" />
        </mxCell>
        <mxCell id="vLS6BRIMxcKvHYnKIGK4-4" value="算法策略" style="rounded=1;whiteSpace=wrap;html=1;fillColor=#fff2cc;strokeColor=#d6b656;" vertex="1" parent="1">
          <mxGeometry x="130" y="400" width="120" height="60" as="geometry" />
        </mxCell>
        <mxCell id="vLS6BRIMxcKvHYnKIGK4-8" value="" style="group" vertex="1" connectable="0" parent="1">
          <mxGeometry x="480" y="390" width="140" height="80" as="geometry" />
        </mxCell>
        <mxCell id="vLS6BRIMxcKvHYnKIGK4-5" value="" style="shape=document;whiteSpace=wrap;html=1;boundedLbl=1;" vertex="1" parent="vLS6BRIMxcKvHYnKIGK4-8">
          <mxGeometry x="20" width="120" height="60" as="geometry" />
        </mxCell>
        <mxCell id="vLS6BRIMxcKvHYnKIGK4-6" value="" style="shape=document;whiteSpace=wrap;html=1;boundedLbl=1;" vertex="1" parent="vLS6BRIMxcKvHYnKIGK4-8">
          <mxGeometry x="10" y="10" width="120" height="60" as="geometry" />
        </mxCell>
        <mxCell id="vLS6BRIMxcKvHYnKIGK4-7" value="广告库" style="shape=document;whiteSpace=wrap;html=1;boundedLbl=1;" vertex="1" parent="vLS6BRIMxcKvHYnKIGK4-8">
          <mxGeometry y="20" width="120" height="60" as="geometry" />
        </mxCell>
        <mxCell id="vLS6BRIMxcKvHYnKIGK4-9" value="运营后台" style="rounded=1;whiteSpace=wrap;html=1;fillColor=#fff2cc;strokeColor=#d6b656;" vertex="1" parent="1">
          <mxGeometry x="270" y="400" width="120" height="60" as="geometry" />
        </mxCell>
        <mxCell id="vLS6BRIMxcKvHYnKIGK4-11" style="edgeStyle=orthogonalEdgeStyle;rounded=0;orthogonalLoop=1;jettySize=auto;html=1;exitX=0.5;exitY=0;exitDx=0;exitDy=0;entryX=0;entryY=0.5;entryDx=0;entryDy=0;strokeColor=#FFB570;strokeWidth=2;" edge="1" parent="1" source="vLS6BRIMxcKvHYnKIGK4-10" target="vLS6BRIMxcKvHYnKIGK4-3">
          <mxGeometry relative="1" as="geometry" />
        </mxCell>
        <mxCell id="vLS6BRIMxcKvHYnKIGK4-16" style="edgeStyle=orthogonalEdgeStyle;rounded=0;orthogonalLoop=1;jettySize=auto;html=1;exitX=1;exitY=0.25;exitDx=0;exitDy=0;entryX=0;entryY=0.25;entryDx=0;entryDy=0;strokeColor=#66B2FF;strokeWidth=2;" edge="1" parent="1" source="vLS6BRIMxcKvHYnKIGK4-10" target="vLS6BRIMxcKvHYnKIGK4-1">
          <mxGeometry relative="1" as="geometry" />
        </mxCell>
        <mxCell id="vLS6BRIMxcKvHYnKIGK4-10" value="" style="shape=image;verticalLabelPosition=bottom;labelBackgroundColor=default;verticalAlign=top;aspect=fixed;imageAspect=0;image=data:image/png,iVBORw0KGgoAAAANSUhEUgAAAFgAAABaCAYAAAA8XZE/AAAAAXNSR0IArs4c6QAAAIRlWElmTU0AKgAAAAgABQESAAMAAAABAAEAAAEaAAUAAAABAAAASgEbAAUAAAABAAAAUgEoAAMAAAABAAIAAIdpAAQAAAABAAAAWgAAAAAAAACQAAAAAQAAAJAAAAABAAOgAQADAAAAAQABAACgAgAEAAAAAQAAAFigAwAEAAAAAQAAAFoAAAAAj3j65QAAAAlwSFlzAAAWJQAAFiUBSVIk8AAAEPVJREFUeAHtXH10VMUVv/P2IyR8U0Wt8iHiF6JgRaRVFPzCqjEJAbRYyRJo7Kn1D3s8rbb2mNqetvZD26N/tJxCAmhtA5KEL1uoRdGDIiii9RMrYFVUWpBISNjd96a/+zYhuzvvvX3zdgMimXP27Ht35t2583t37ty5M/OIelIPAj0I9CDgioBwzdHNmFQbpuFj+hCJiXh0AgkxkKQcj/t9RPI1MoytJOTTFO+1ixZPadVlX7DysXW9KLS7hKzo5ZBtAmSMdvEW/yHDXEOW2El15fvQBtmVF+yqMABXN11Jku7E71KKFBWTtIApZON/wVXgJwz8g2YmXsdNM9WV/TCYyHk8FWv6AeQphzgTKARcO+XsZMmyGmGixIE9JI01kPnXVFf6Umd2kP/8Aa5quo1CxsO2sH4lYLAtaw+FxSj6U9nHfh8LXC626kSgtoGM0KkkTR02FknxLaovW6DzUHpZVqvgqarxNxQt0gOXa2PNMcQgSspNNLvh+OAC+HjS5p94ASZKF1xmbqBHzqdYU+DeFhzgWGM5qr+Dkgd9tNKhCJsQwxhCVLTaIbeAJPDnevilBknJdrZwP6Gq5kuDPB4cYBL3M0JBKj30DDc6HB1HVY1zDtEKecF8mX9QcDtlESJMhvxt563OfzCAYs3V6Dpn2IOWTm1OZbkHGMbtVLOixCk7MI35GXR74B6WXjH3tkjxOJqFwVwzBQOY5D2UjGtW5VVcjoZ3McKrhHZeuzUSb26M9nNuD7CpCNGDbtludH2AY0tPBzOMynirBUm2rxmipCgqCLtOJgb42S5iJyHPf9ZiohE0q2GoDid9gIUxCkY/zTnXqS6rrO0b08ckzNNoYcWLWbn53dbfsImsxFfB5NOUD54fu46nIxQuOk2Hkz7AlkDXEyGdSlzLSutlDEBn04LKd13L5JNRX/k8WZIHuQL52iIC/32YjkiYtmgmIQpgK3l+YyWgWTdhSvqpqwTTG4qpH2FmWHwmQJqE2eFJXWXFHjKsjSSKN1JLSxstmdHWlZd2tbDi3xRbMZFE8s2O6WRaZpBLMQ5P1ft9Uh9gImhwvvaXDZo1gRZUvOUo6PSGKJVEb8NkZCaZ8jyKRKL2DCxlB1OPsH1lE2PCC+kT3Uyx5pUU/ejnNO/WhMKzvnQbxRqvgLeyLn+XTZ6i8Pcg6JsIkkFeSrYIi6mucks20b6fs2oYANuO6fcDeJHjbHvPI7gJ3Kxk14/v2cVLgT4OLlktJU7YQ7csG+3Id/jW9XhJDY55vonQC0l9fRdHQX2AhXBugP9a45Qw70JxtRtUNV5NVvxdjP5f1tY0G2jRh8LGy9DmqxRxamstMhI/Uui6BEPA//ef9AGGDvlnn1UyFGFYf0+PVO7KyiGKNZwIYJ+w+326KVAKehHsdxbCJGgNNHmwUnL+jHfQI5bYETMl0ydBklYPDgKwT0kcinG3DsV/qeTU/BHIR1bBRhZGHntSYDxDHPvNTpasceo82cUKdV+YBvmWBho65HXVazg4eDK09yvaZsGrXkHoyi0c/M9Mw7e2kGk+lUnsvrvDC7A01xPbwuxkiLsKOuti/vYsTv40uyq7fkHrFXo3EQ4nwJJE+AWlHXMaBiGQMrnDG1CyAxPYjkeLL6KZKwcqPCzJAKuDrFIwf0IQgOEzBUnwW/e3qwCb0W+TpbXK4L9yduuiye8rD1jyVYXmn6AV5dIHWBJiBporTXZ3tbZjtrVfaYcgTCYw+HVHMgGwoOsV1ounfoIeszuQWZK0Q+HnQdAHWAitCuy6U6GLTYocNWv7g3ZC9/VWWAGByN/MR1UzIaAoqWCTIpY7gWePQm2H+wMBJhqG9SwAUQcqj0rshQ9pqNGy9nYALOGidWOSiPxFSgYpNUgDcQzdmBW/MPmKwsuDoK/BB41/gZ+eHbYbIp9X5AiZmNcL1VdVCuZFKIYWY+0vO8l/YpU5m5jrvo3MpKooHk/pA/xI2TvQuje1uhfbYEN8osphMbjarVT5eFLC0DpsiMlKLI89NmTRXW953JG7aOG011yLOGToA2wzEd+hiIbisa1bUOYQOTOOx4vSmno6tMGbJAxBMqQCzPLo2OAIL7gI7eX7YADXlW+k+IF1ehrggIPUUiEHBn5Jdk/xW9ihHLQ33vY2Ytd/dcj0JAUDmFlK8Qu4Ot3kwHrKrJnJAxOvwjgl7vZ+Eg/q4k4/JbPLBAe4vmwtUF5JHCHLmfw2JCejYAWki51vb1Gjetk1pAbCjVRfviI7y899cICZ+/5EJZnxbTlNxcEWrdmPH8ELUka4AN/JnC2YZX6IBYDJnSTd//wAXjLDhKmohKlAhMxLS4UaQdOVtDvK54pGcLsMawo9dC2WToKl/ADmOuvLX0XY5FK8avfJRyiqBr+DyVvYpwRWQNwSOzeGNZHmT2W/P3DKH2CumkEmsdbV7QlHnQXsbg/4UK3COdhR1LfkUJH0C9s0JN/KF1xmWRiAbeGk++yOQ4c1DRx3yEymbMGs213zM0sHvIPpEthh75i8bIQsCDYFYZKSXZwDr8KxGXboIh45X8kUoY9AC2zfFH5OBMmhOovryUyxxkk5wqReg0omL4+7wgBcW2sgcDLSNWjOcVmiMkUOs4133HQvwMw/9SIzq7dotGvMinucCI/E6kfe+OTNgCatC9OOsRugJZkNSL/jgLoUl6ST7OtFMz7A/wGFXlCCaKWhW7YpLEOizN5noWR0EtAeblct2pdHyg/gWNO5NHxfE6JSF7lqLwvHE6EQthyVOu0Blg/bB1LyaITrozxJkFh/c1oHFMaVniaCtTiEdu3c9xiOEJzrWkeOjGAAx5aeRbObm+D6bkSU7DpfB0skJD7OnKjIIwc8qBU4Uhh4EMIISJnWvUqJ6mbeEOgyYKSV5p4nxDS08zmqalpC33z8pLRcX5e51f/m1f2oV2IwJbGr0DAmgetMADICMzhYBe76ueXskISHczYTf++4T/3VT26n2U2NcPEqXG1ixgM+b9jVOtj6Gi2e+obyhCWvBGj+BrFU+3pTODSNioqnQdaN6BWLsGtzM0Wwa3N+5U6FfxrBuZLq5V/HpruJOJdQCgT7wn72w5scmJoSA1D/oKZVhUtJr9Dwl89Xumx1M68qI7aRY+qayS3HHZpmJctoYeXyjILTG0LUO/os4J2QQfd7wy+Ow5wWL/hh7zHJvfB2twDw9XAHV1F9xY50VimA5y47m6zQjSg0jaIl59hdnrUzNfqnl8/vOoqJ04GWUYpW1WyOUOJ9HPjjfW++e0QOWST2uBljEYf+LKNgzYrjcHxsd2F7CwBne8+zv4Q9HWiAMjZg1/7zKRtsij8j816YgHNwyjG1a7HQ4HIrmXfIaMxoMN/MG5eALa8omC0u4hmw/J4CLtcVNxe6zjg5P0jiQZzd7QRvUYaCGMYM4LmUQsklKYAlmba2aq5lasvC/A3jTNixrynPzsdSVLzt7rwbz923/bOFVDe1WamjqvE0CoWvLXjPzK7I7v0AHAuuKYCzC3TnPYMsZS2qUO1/a/wBmKdNARYjOyQGS2m+T2bJbWoTJIY1cV+3g5tV8eEHmAWIFl9F1U1XZMlC2JgSp7qK8dictz01oColchBwLMGUYx1P81c1jcDiwMwcDAqefWQATmB2bNEqxz283MREdCwG3Pf0WitxZgMnoBZN/Z/y3C2LeiPvOZL2lF3J7k7CkQGYBwI+ChbC4MrfmchOj17bgvwn9bRYvERsx7NTLaJi4f4LQD4+sHuZzVPj/ggBDAnZrYn2voKGjalylFcQD8n+k3AJGm1ffj12b87Qe1n+q81V8vACzCM8L5KGscfATK6h5IGryPrsL45CShqupXGSnIPn1r4nKbG/HH7vRmyhSvmqDuOrowwFIKrdswBMbVerc1OHlcCOSsFRM+xotDbDyV+DD1z8zbOalNkY4FlGyZSDiM/VZZ+XWzyLP1/DLluz/W0KGS6FfFfDSo0EzieCfhKCTYY9uUp5OArnfAiFA7hTO1k7Em3PkLCW4rMsz0G43RSN76V501sAtL9p2tALsOPS0pzVibOoX2gw6tvpCkjdjN3IY3u8gGJ1+HbPoP4YbAfgZNMo9JZrEBKYTkUlA+1JQ4G21AINpFjjZoyyF2h1SX6ON/XJJDxq8SEuNgDQOmjnWs4KnHhLa7x1F2Z2OOHp733YddnraNRKFnsSpe8Frv/mx0+haOgm6MlN8GSGABd+aWiehixc3pbHejEYwKnNGByr+BU0oIEOJN5y3FzNFemkWOPtEKwWv0HaDeJ6uFFStuJ3D4Iuv9Op2rHsrBUnk5G8EHnftQdknur7TcEA5vfB26VkA/03PJdWlGrU6CAZH5mNJHpTEbwJSfMwjR1YkJkWB13M5F5oYQ3A/gftGLCfnpqcnxPMJ0jDYjXe4sloSW7nQBtg/gyWGX8dZuFWWlD6rANc/khzm0/ATO1C7HjE0S3JC6HjKNyrr33mWLcbetXIDQzBW0kchO2H+SLsTDdoHQ294WmqFZivB0xVzTdjv8QfsGbXx9Y1NzbaAEtsWK6vUKe3bhWwg//hvBDtHRim3pEp9shNcib83/529+/uwJIiFwDnRvMvab4BG9+EY9ePUV/xNr1abNJTk3j5wp+h5SMJRSUcXh2uVNNJ8A0w+61mYh3tj19jxwo6GTj98wCVaEUgW16CXoR1LMQFon2G2d2eLQuHQAuppU4y+KGxx8PjCLctblu5LTBRW/HbDE/iGVpUlvuYAB/9NSJPQ5PPcFzb8w0wyW00rPwsz25V3YxVD/kI2jYFP3b9IP3RmKDBApogaR88op9Ra/tDUCpohkviFfVTP8XWAwzK2akD4NzG2rLmuoI7Z+Voqm5ugK1rQYD5BtQBo3e0gssIIaRpH/YWX8I3Kh7Ersp2nNy/j25ZfirnKskeOGWVQk8juANsu2LyCaxprU8r33U5e1kVuvxGEKYTH77ujhWQrtoO8xVMceqDe2F4Ij+mkPUigL7GUYi6qStB3+C2UOAOMHPbnyh3ZDp7+TeoeFA98ko+FzbVUchCEQG2oIFYq3yCYsumO3Id1v8yez3OIdMFYIy0ZrLecVCLPY5BDOtabVhQPZZSAiENYdRj1jtWaXYtfGwzvojfRHbiAQl0BGOkdRxMUMo/FPChDOvR7MKpssYdGIIx/PrzaBx5HLVEUQKs7ob4NypNEOZi+PYXA5YOpbWwX098kIKco1C9+ndpc3Ec8yqHWRob++Kid1Orp0oVxwaBdwtZyXNp/vXqxmz+nGNbtEuN2/dZXTd+4Kluegx+H4Ig+c06/VT1uS3Dg79lrsaRruv8yOgfYP7uQlGS17v8P+NHgqOzjIUPO53i+O2hrPZ0mYWsDOU2Gr8ItOBzeIXhUU6IGJP8tMA/wFJcDIZH6QzNDxRaZXgAQzggd/IPsBDjc7M7hkpYxD06p7nUAJjOO4bgy91UQWNQKKev6g9gDuZESniBsCd1IhApCWOP3ajOW7d/fwBL87KCbvd0k+ZoonP41ZSX5xLZJ8DY1nrYA+S5RD/C+byD0rAHfk9B/AFsUKljUNmT9Rc801Y4cUGuVvoDmAj7Bnpc4AwwGQ9DnJ5Bc7jxB7BEuC73gOnA/gtOYpB56cgj5QaYV4F7kjsCJj6B7pFyA3wQIbqe5I6AERringkr4pVp54WTQ3OWOaYLGIhfuqfcAEujZ3Rzx48HOk8FTK1oeDPAB9w63sPnYU+Dl6yHM4+X5XmLVlvbJq9qcwYr7IdnNY6HMbnfXvzz4nZM5eFMCBn3I/CeeTT4mMKgp7E9CPQgkCcC/weKbi9s+Py0ywAAAABJRU5ErkJggg==;" vertex="1" parent="1">
          <mxGeometry x="40" y="280" width="39.11" height="40" as="geometry" />
        </mxCell>
        <mxCell id="vLS6BRIMxcKvHYnKIGK4-25" style="edgeStyle=orthogonalEdgeStyle;rounded=0;orthogonalLoop=1;jettySize=auto;html=1;exitX=0;exitY=0.5;exitDx=0;exitDy=0;entryX=1;entryY=0.5;entryDx=0;entryDy=0;startArrow=none;startFill=0;endArrow=classic;endFill=1;strokeColor=#97D077;strokeWidth=2;" edge="1" parent="1">
          <mxGeometry relative="1" as="geometry">
            <mxPoint x="720" y="292" as="sourcePoint" />
            <mxPoint x="620" y="292" as="targetPoint" />
          </mxGeometry>
        </mxCell>
        <mxCell id="vLS6BRIMxcKvHYnKIGK4-14" value="" style="shape=image;verticalLabelPosition=bottom;labelBackgroundColor=default;verticalAlign=top;aspect=fixed;imageAspect=0;image=data:image/png,iVBORw0KGgoAAAANSUhEUgAAAHIAAAByCAYAAACP3YV9AAAAAXNSR0IArs4c6QAAAIRlWElmTU0AKgAAAAgABQESAAMAAAABAAEAAAEaAAUAAAABAAAASgEbAAUAAAABAAAAUgEoAAMAAAABAAIAAIdpAAQAAAABAAAAWgAAAAAAAACQAAAAAQAAAJAAAAABAAOgAQADAAAAAQABAACgAgAEAAAAAQAAAHKgAwAEAAAAAQAAAHIAAAAAYkZzgwAAAAlwSFlzAAAWJQAAFiUBSVIk8AAAHhdJREFUeAHtXQl4HMWVrqqeQ4clzYwPcWOsw9j+wFwBkmzCkSwfZD92TRIMBHCSZcFYsg0BQhKcgAkJhHD7kDE44U5ijkCONZuQADk4A+EmWJIPsGNbtqwZSdZoju6q/V/PTE/3aCSNNCMfpOuT1N11vKp6r96rV69elRhzg4sBFwMuBlwMuBhwMeBiwMWAiwEXAy4GXAy4GHAx4GLAxYCLARcDLgZcDLgYcDHgYsDFgIuBvQ4DfK9rURENqrmr/ViPV35KMn4aV2oi43wmwOn45YqxGJ7vMKXWotPtTPGnu+Y3vFdEdXtV0X2XkEpxtrTdF9DUNM74lZyzLzOPr4xJgzElU0hWIJ89IBNoih/8CgESJ/oU4/cbUj0UqvS+tfFrk+NIyylkB7D3vu+ThJzwkw+qZNJ3IjOMG3hV8AQV28WYAcbLJdxweAdBucfHQEymErF3BBOLPUL9tWNe/fbhiu5t6fsWIRcvFqGJF5zIhWpiFYHzVayPMakrELD4fmgexsurmOrt+puS4jqpRV/ubjoyvLcRbLD2FI+AwSCXOv72TeWhsthcyL1FwuufoJLxUteQgufxgrsNSGf5oGKeOyLNh705NhWVFuo+QcjqVZtCWiL+QwjAi5gGTJMYHSxg7uMaiMExBwotm4vEriICYQ7Vk9n4fG/mHOoBQZNtSF7U1dTwWL5se1PcXk/IA1a+VhHTq1dBOTnPVFQyikwOFmmuY75ypqKRXmikf4Ww3aigoQrBhYTwRfagYOpQvE3n40KfYHqcqSQUWZlWjHLgmZ8Qt8pIdqLKGyKTGpaz2RyjYO8Me4SQgeWtR6Hi06BqHAeE1+M9mtDZJbsWNrzvQNOjj2qhHTN/Bi6cbSoy+ZQZIJvIBISvASu2aFr87zLu7Svzd+tbGo9NsNbXU32M14jaeNQTq+Q+Dw9WSBW7APrpN3hZZa1KRAdXlNKarlTyysj2+jvZYp6l/GLlqQ6uP0xIsSPyjcMijrbv5o/dRsialg+DXMYvBIdchT4ejF/iEk7iD+Lu+XBTwym5fQ+1tN3Gvf4rhpgPwXTqLwB0WaS5ceRz2crXvCG9Zg6WHLfgN2gtW3IbQg0tG8eM2K6TI00Nf7InB1ra7gDTX07dwbz6JhD6ihLab8MdH/0fW3zKEHOAHUrx72NOyOrb3wuJirILuZTfFb5yKCkQZ07O6sXSbeHOeY3327sTXN52piiv/LWpmdoTMu+KRZQS14Tn163IRI32WXnn+lqfT/4EDYOUYJhg8wfFac71HBGed8i7mRzjV6w9XirxCOe83hT95hwNkZyI9YO0y6TGV3Zv3fzhWBN17AiZXiowLu/kFYFPqP5e4CkrlVKdhvpiGGvCzY3/kUEMPSfcsXF/w598D6I3SCPdEcx5y3hbCTEncumUtxxpRX4Elq+9Fdx1MRSlamdb04ChQEF6bK6cWN64efbB/Ygl/KnQstYbmODfwnt2ENAa1V/BVCwalVLeBLgPdDXXb0pDKvkDqt0YhCXKH5r0lf9RXD3LPf5PqGh3lojUQa8/hQLDeEkafGFuC6QveSdG+EAiopzS9Zc0Qz+j1ESkNkSap14FUX01qBUzLT+5DcNA5Jp2UHRHvCWdZI6yrknJG/C9lgnM15kAqWNKE84rtKoQCM0eCSxtOzmTXOpnyTkytKStmmnsWigxl3NuToDpNoOAZEFLRDFv8N8qqZ5Tyveb7gWTN9g7FVzR/mnYSX+PuAp7PI1ulH1JJtmF3Qsb1tnTSv0eaGlfAN67E5xJLJgHPI8qrp8Wnnf4C5lEzOdnQ3hcx3xlMzAIoRFjnZspi7kDWjWXyTg0YH5VZH79A5lypXqWnCOlUAshcJxENNd0ggjxO8XE2UloqJH5jUtyiWh2SqmrUL7c0UESp7HoZoi1RWNNRKo3MqGuBax2M/NiSZMvcIV1jkZKmxW6muofVx5xnkxGz4IecD+I2E8D1wywPBFhMbAnCKFuhyi+xCpYopeScmSwpfUr4LtVaDE6mp7bMDrRqSRG4q06K7+td/5BOwdre2BJ20ng4Ycx3xxklafMJLIMfXFXc8P1g5UtdXzwrnWHcK9cDU46UekJJ3jqk1SbpVLnY0D+2ZmIOR62YCPKjmSadjOmkU+zJJXP4kMp2YUBfUWkqXScWTKODLasPxJEvAnLiSwRqYdoNf7eHJ7fcM1QRKSswstOxiDY30FEWidK/cWYJ3kP5dldIXxZ3UdSGj9SZAUiwtkDDVIMNnCYQ0nLZOm86PDe8ILDX9D8gTNksn8VjeRMGvWNC08IMvtq2naz4ot8KQkhD3p0U7lixle5v/IQcxsp0yhMFejyLV1Njd/LRA32rL3lrUooGscwj4d0/GwwdKjx/Kno3Olbs5G75y2pJ1+GUPyVafLLrZLMf1wdj+XHgblJme/Oiyb2RpqmXgwsPAhiZteUMBNyX/l0zSubiXsz+Yt5loSQ0e2xKUKIK0wLSaY1NK8ptRoL/W+jEzlDOpMp+9THVc2AdWCqw2QGTsBA2GoI/lQ25+5767v8iA404BlYjQZWSpzF+GTD4HUDE50xXc2NX8c0udoeS+tpgLhQJsWJ9vjRvhdPyEeVJpm6knsxsRP/UTDXenp7uKkR9lEKw2/WSqXXKyan2KUQjQQg8p2eS+vIeL1HAvTNN9CM9gHLEVNawnbLxeRCGhZubrgA2PmHZchH10RZpUcZ/Kul4MqiCVnT+VE1F3yOStD6OB1ASBB3XuazkCdXYn9RXu21BgMKoeMJJfizhZQfqzxdnoo3MQw3gGDOKkAImO24xtkhzoTBv2CTXZDqX0pAwfqDMc5mK90/qHgeHJozJad1zsTCvhKfF2XjYDBNcSPtQsh4/zOVWs+LhZVHrpXKiw7tl7s9he4mpZCvFAxnLDLOPSCKtn3oEPmZejDXYcDuRzs0maihnjvn1/0Rut/z0ANS2cDVNHhhkD+VLVZF0aKowtQaAJilsCVkBWwlCc2zektwvS3SSs37Ulve4cMwGGfyoD2HYnpPsOENe9SeeJecf6SUkbMGSbcEEyVjBxTcLMH5DVAKrfwqCUlmGOcw9r7NLGQlF/xSNCEh/75gcRLZIqPd/UYy8RabPdsotBWJ/j4P1BrY33JKcAzZ2Tw/AnOyjuUnNq6wfMgzz5uOXurQCIvUFFq/Fu9/T/VFeqw5F8sb4a/4LJteKIT8+YomJPd6AxmxmprIVRvzaSPydYHVI4BhPSW15Mzf0D0ay83tKRiMU3Ob1RbyxGNiU1V5qMeKG+ZFF2X9tPHtWNIATqjTd8wwRYdMLoqQobvbpltERDVkY8Tfbd6EYdN8hqzfTKzwBnZIzt4j0+xeGWDCKVW7uqo8CaxN37G0VwIM8NDYsUkw+lAUIVHtQJFCyyunvXvY1hnlgsPkBSrm4otrgfs2BIYFMMYZoJrC9kvtyw00QapYR6Q3u9jPzZL7ndhpoJfbcrVgzMMFKUy54DLfRREyKbWuAeIGJIHnRgZ+Qc+Osp1JcHNfbudQWBNxfVpBQMYwk1R8BsYnLDA5A40MFoq1sYUNBSt2eZtJ2qvi++VNKzCyKEL2Nk1Zi/05q6rU+p3VJrXytNnfShr6ZfaMBFC0Xg30jvMpQ506dOGxT4WImQTec26FgIgyHo3D5orBPIIA3yEUnegwfEBJlBoGRBGhKEJSvVgz7rA4iWyIjDUK1o+lxMgC/F22YJegx4KVKu7D9+dGBqnEuWEDBuIbsZPhBAzko6/rIRLbnQlDf9UGqjywFh3oICQgcZ3nsQMODcueWjQh0YZXLFUaIgJrpAquPNMYXD3sFQ37zvkGWGQ/cuw0AIP4qQsuXXfEsOXHKEOgvPxYSNT6XIOAuWfOeWt31Deig0Bxo98L1eYouLhkW0zHFrh35M5jWQi0ni8uAPnPOFRpOAGDuGfUVp4FBaHwEJne8C6I9oFDcyVlUbEDmSbPLxxSaXPC/PhJSIXDnByEZukJnUv1BrvC9N0puFJvXE4U5VUz4fycKoO9VtkXbu/WySdz9KFoQupM/EImaKcJggZBpTZRz9Erygu2QZoFT+E66Paa1ONOA4Aw1ySnVS1de7iZbzf+mXDPukb06ouOpQLVb/aVr8de5RMjaw4cRHT9bPtWH6cjCow9wbo221h0ZFApd9GE3NWxCZO9+rnpUEUQSbz6ysoUF9fiI0Vdii8kaGINhOmHmUFhFqF51+M72ivEJcXaIwtpgpVn8XMew1CzmNd/vMU9ViJMF0q9Hb5suuUWaSUN8TJx+Y5KKEfXOTYYkJ8zz1PFuksWTchUAzw3m85GGa4kq77He+74lvUjUlTCc+voIOoL+MUSxhZIm+Xs4tCk9i/ZYsf0NTTx4OPhBHa1ZX601QbJ0YmV7222qIJedR65VnjLMCGmljG09aewwSDj7IOCAAyRqXhCAni51tUO3N9j7klmKgPy4TXwSzoekIoqkDsNfgu66TTxEZd7/aQJ/5C87DJVjNUTnoDToZAshWQZbxeDZn2Q9KDDwzjY83Jh9af6HVzafgakzXxzwFNBDHolgSOu7o9cPhnmv+JCSQi5Ze5xUSxp74GX3EbaxjIDMZXQqqCkPwxXwRPR8tQwHKa9XTj/gYy/yJ2XTC80X3kDFIyfVi95H/DMMDLRPWTdKYSPW946jXnYg8JffgzqdLaZpmvDaPWyBKaNQgLB5CqE9sJJ/W4oTVkFkPAkjSd1WfE7ENVZTyGgc/KUhJAEs7up/nUm+Y+lnoDfXxosnXQSYgaSHwgsW3tWTt2Dfvr7ot9CJ1utZU06J80t3Otr9Hi8q+ErQ/CKRkC2EVzRMQUf509gWjjWnMfsB2hNDjKg38gLdjTP2JUtN9QbiLjsH58EvHsxNRxiab7kQZGIbWCGumU4h7ShoNvTSjiiARank4KT2pcA6Dya1Cw8ExKU3ImRd29YdN/AwMH2RuR7D6zYeDQ2Bf4+UNFAbhooSkWAmAe6PD3XFAIvXx1WHE59BXccdSPMhBehjeMzc5iVTi/YZ2Xx2Llw+1/tiB/io2Zp65c0jS9BluyGJekRikGCyW9HmhqXDlF8REmlJWS66uDy1oeBFPLXyeF4IigIwPmNstu7qvs7hzrnwpym19zd9mWPv+ox89xITlr2U22Fm8g1OyfWPTTi84vguMCK9jPRSJzGEo0Wx2SBm2+8opoZ0d6vwXH54ULqIJ9Y5lM/QmdnY16EPHYIDhjNVQv8mQYclcipdkSfY0JIagGOm60Cgs4H0aCaOToCUzg8O7B+gvc4jqCx55DcATX3Dbgjvd3dZCPu2eCUU2ZezTX/jfBtJS4c2DmMcFP7S/RvQnKLkPIpIYKbvZ6PZEW8xtBhEaNCnl5d9cI8ZiQjQk+U4Uym/gXMt3N5WcXBaTGaFzYGHlbu/E7fuHHXd8zZD5cW2AKO5U32jdf6O3s0VgsHo96yo9GxuZwZs5jmwzm89KKfipicqBLYUliGa2GutEEpyeuYEZJaN3752jmKw2mZnI7JTYl21O0BcwWcdWkeNTtqRHd9L9LZcKPzMOlznsDEgxZB3b8OCtBAGBl4gIEDQzgPBUeDvu5WcNdGSPd/IjktFThtNR0FbmiEn0wVLStMF5XBTiyb4lv2YJa/Hmcib89Uk3nSeU+h4hfjeAjtyU7FEJsG36UaXPlCh26zg44ImFKStkGLXxpumnpjBkYpn2NJSIKtqmAd8Sb1q0HM05kH3mLEVaaLBFBkD0RQqe+k43LhS+vW2JPYkjZ/0IvTxYpdQ5rwgAHhyIwPGiBECBogtmDaN8mEOBjxKC/KcVJGdLirKHlTV/PUvHNicHn7fK6JpWQIMQlHfbLDJUmBgQX/1RiMB39RmnZN96V1rwElwEvxWqqtW+brWBLSUVdgefspnMsvoMLPoCMzYVyHyAUx02t/uqSBuFMmY+1c6nO65k97yQEAH6Hl7acrLm8GisiIXtq2EwH95UzG+sKY0h5hUtwTXgADRZ5Q09L6eU3xx+ANF3AYDGjwYJfE7Ec8qkNPeBbNfKIi5n9o8whtsnmqHTJqVMgILlt7Lkbj1K55DdcPCT1P4sS71zUkEsahkDbHoMcHQf2pp1UxKFqP+aqRPMxkz47t0tDPiSyY9nwGROroeuIsLLm+A0N2HZA9qrZn4FlP4l46kBrt7Ucz7sOAejwyfepfGGy/Vh7bS/Wy907wCN9TuJMn5b5JYjO1Zmayf5cBf7HXsLX1Arbl1ni9/vc7504u/KgD3ZnQcdQc+CLEoQz9zFbtsK8jQgadz0hUlC+G3LoIoisopTo10lz/3LC15MsAW+bEiZPKBFzIKDluiHKPSkzUPdo0eK1BBLNqOvhD5y2VR12DPbyzQDpS40e812lVb4paEp1APhEAQfb3rYMIXgnYT3tkfONQa0STExn/NYptxOB7BxJyC0ZgO77HwedmGzbB/wwTeNznq45sIX/YEYbgynWYY+VGkspQspaFPT3XY2ll05gGB1gwIWtXtE9KKPUoxMVJ5jwHMQJfz67wc29OYo8V7vo4eFPSKRiV7P2zFSk8oRVt18E6vQB1wm9ngBqfAwpdgUZkznEk4kjJoN8M44JwKtYLxPPt4P/X4Vr8CvOIZytZ5dYtW/dPoL68HGivpKaFTk9F1/uUlqysqNA3Vk423TWDK1rncsl/hNlvRXh7/Xep7fZyhb6HWtZdC6/E61M7SGB0Jf/kE2J2IVeqUU+HDTV3tE4RfvYEJu+jSCuzAo1ww3gch1TOtuJK8FJz97rjhDSewFzjPN2VFzYhzZTNXRjGWMJgo5t5XoF6uzPpqWjtnXtAZ95iJYqsWPn+/n7Duwbaa8qmrOuvGkqd273g8A0jqaL2lm2VicqeLkg6y6iOSxJJs34TRvUvdX+jcf1Q8IYl5IRl6xoNbrwI09h4x41RNOoxkWHUbxX+wAw6QjZURYWkBe7YEBBl+mXgosUmJ6UVIUdZ4rLUejIC7uqECILxQXsy3DTlbUe+3fQB7RUaufo+pCHWPhhGJLKlEZWGcV5k5y9+C0+JgrgTmwtfhDPP/ZAouBDPVoTW28nETk1pn+qcX9c6WLeGJOSke9fX6gnjLWhntXbtzFS5k7GtWMA/Ht5ed0UhYmmwBmTiTXcOAY3U4zkjtTwBUuwhPadB198MLf9lpN4L++4zGEg5Ge2FxvadJIem5EM4oXu4Y/GfIiY2ytWi8I6GWwsVtdXLWk/QBF+BqeRox0CGQsZ0vcPj02Zuv3gKjCcDw6CEnIS7Z5I+YzVcL05yrNtoD02PvYW10VXdTY1/GAhy5DHm0oSxu7jPfwQzLwu00YY4kBb6ydg2MOJvMA89kntp0chrLE0JXBoxC1rqA5BW1Q5pReBpXUyHdDm7oVyrvKtQ5ce888cv78DwnA0lTLNwj1do1M9L5vuiw/qV7grkY54AjTLpNW6DvHYS0RwZ8T/qujy3VESsWdF+KtSm+4S/DETEhjSJp0wg8U3KSjK+GtcBXogzhpfsLUSkJnpV/A9o7dfBLX8zrUqZdtOTTIoeTzla//2Y3nu1PWmo977Lp3Rovpq5yHM7pE+ClDcz0Dqb85M1lvhxvvJ5OTKwrA1XjbEWlByXno9M+yhG3eu6Js4r1cFTuncGVrefw+6634ALF2gEGjpcgrSFPCkfwT5lT74O7A1xoXvbDlJJtVD4K7+JHX80yTYYTTFLdjv+bVxmcUfB7TWvV6u+FYRsRhlarGJMg1xK7oJxam54gXOdOYCQpNxILh+Ej/cJWZMTlu1MvW8o/l89zfW0bio6BJZ/cIqAkgJC1VjiIwPVnOCTm2FQ/89IR/1bhc4xmeJ75Ln4PV+o1jcL15ytpkNkFgNQY4irIBd1Q57Zs2Dq04W2b/J9G8q6+/UnQaTTrTI0MAzjFaHEHLvyM4CQcKX4AS62XWSeprVKY/9MqQtxcd8vs1GjfxuHNalPKdLAanKhkIcBtLSX4kntLBIzuel7+7c532vi2QHETDU8Ce+Do7suGdml+Lj2ZgO04skpEBgX5sVTsRtxP8OiTJxjjgwsWTsTI+dcXBOWSTefYOrHS0VEbD4LHNElJWkAEc27B/T47yriZZ/bF4lIyCJLFzfkp6Gx0qRm4s/2x4u7PR5hZ+c7EGTLlfMKLf0SkM/aOqKjFbB0nUm+RZmsWUICwUITx+HakDpzojZzmA3pCU+o/+9MgWKfwdr2pegfuX/YAuqhTuvJNUlpnD/WBmZbxWPyCi+CF8GR54OYOBuSRTFVhl5OD53c/r2RVNw9v/EZTG2PWP5QICQj5VCwTxFjECyrltradRPAeU24jtOqI3UFl7y+kF1xq9AQL6SuY7Iltdqq18yOT3T6T8zgc3vnT9s5BIh9JqmrwvcrNPZ26BlkNMm2m+NaKM7mYeP9pGzk8G++vqomKIS7MloshxaLpc08ohuVthDaL/mh3F92jHnTk5kCrTHR/8+KWMWK4asZPseElRv3x5mjZhwvmJBVolAOigD0gI/Q2UXQTDcPD2kfyfH1w2Jar3ETmMOp3KR2SnC6i10RWrKzutDedHzT9E64ji4ApkB0InoR3eg7RUisGzVmfNncjE2rzmS9QfhJScQc2N+QyVmwe38+K7YJPAKu1MTOwbXhefUvpCI+Pn87v3V4r8HlD2D4x4k1G1eSiVGxzypf5N9G0luheX8u+3t2mGZAACB6Ed0Y6JfmyEnY2+HnW86zhF/86kI8PJKKBssbCrUfANl5KSkzDrWcCij1NK75emCwsvt6fM+8qa8CmatMEZvpDLgSKwNsSstZI7ksqaxPg32Z/SozV5r0At1wfDM1V1XvV3YoFrMHWus5OlgSj74CD5ntmbpH/cTNWLhX+DTAP9KxcwKAGJg93mj/haOGvY8UDL/dfR0uftpmby65h4BJL5BxLUfxs+dyvpN05Er7NfklmQHzJNHNpB9FwEOlLsWDqXQ6Jgct6c/hraK4I9UAFwyvHweCfWeA5Qbcibtdr+745kynZ1qqCR+vv/ccl8R+5T2mzprpGbgSKwRcxsjm1D64rTITPdzTo6kPcL1LmyndzMz4NzOgX0q0SvXv9t2N1JXOHNtCk22bj8NVkT8d/57oaFFZU++ED0VK19u75zWuzF/q4xeLq9Bw6EeRMdkKaW+70/W+bmycFxbgjNiD2XatdY6UliKgX4qQih2B3eg0JGQD22tCfFAK0xgcqa6F/6qjlaYixdXljsiP+wdcPyDllmbmN7O7IIJWNf4wXCyIhT0WEwWE7fKwLriYvpFSeGh6InMgO8IkJEDALpaGgmkTB1d3SF2S9beoULVy7QQQ7ZTcvTpcorAjrPX8vijg+2JhLh6E2cXRchWPYorhs9liMowXEObirgHJNmXWk0Q3op8JFUOhAVsNFhTiSRK8VsQoXzyGOMeudRMYzAtYD8uSrE1H2aw9VgxLrHdZoh//jSBLM9IdhFLnsZNG0CwBYmVgkCUQ9EsRclzoAF5Rw3hlgIlxIUDEzCYEhG9xAT40sxxXroCqpDLj3ponC/UOK64Fe1tpeOXCZ9YhXknpqaypHP9ua33hrVXdhEf8jy9m0g30w8IO68VdO6G1pgPcaj1eFetsKH7nASz/GTIlWYHWkYnEq17udajiVvrH/oW8HNv+F05V3wdnZnsLK42hsRMQ8UE2cvC3iv7yNbt8yckquQusnVpYmITEbv/6wYuNLiW48h9HcMN5yZC5rOH6SyLaU7Sj1uhatedLeb3erdBBMMdAIJKFhwLt/itxPN4eML+H+ZO2tn1oz+acee0pRb5zXTt1AAjIdWhcr/5LrB0HdD4VEU/2J7DL45wniZDc5MhBSg0fPWaExFjDfx23NYDmxzium1Oqyxb7L/dahn/ZBxy8Zp5Cy/SeCOnDxUxFhDEjJIbYDOi9WVKSu4MhPxSSj6nDcBG42C1FvZ4gdD2GM/RZ1FDF2AEqqv6xIyT991R7IELiekvuZd326H+19y1s/yRpPLkbzsXiYcwICR+Tg017IGmq+KUzh2aAP32xjd63y78OfMDQRksHLPcyvwLLv+pV7fWj7Vsau6MtPng5UGst7KuRTA6sJ2lnfKOu7fk7yjNt2iPPS47Vvas2/FTv3PQc3EEseQqHDe7zqVE7m40ZIen/Qhl6j4PjPXrM2LF1utPwukewuQcrxREH7A0SwUZNtD3YerdqFwMuBlwMuBhwMeBiwMWAiwEXAy4GXAy4GHAx4GLAxYCLARcDLgZcDLgYcDHgYsDFgIsBFwMuBlwMuBhwMeBiwMWAiwEXAy4GXAy4GHAx4GLAxcBYYeD/ASbmvxZyihTEAAAAAElFTkSuQmCC;" vertex="1" parent="1">
          <mxGeometry x="720" y="275" width="60" height="60" as="geometry" />
        </mxCell>
        <mxCell id="vLS6BRIMxcKvHYnKIGK4-21" value="广告索引" style="text;html=1;strokeColor=none;fillColor=none;align=center;verticalAlign=middle;whiteSpace=wrap;rounded=0;" vertex="1" parent="1">
          <mxGeometry x="390" y="280" width="60" height="30" as="geometry" />
        </mxCell>
        <mxCell id="vLS6BRIMxcKvHYnKIGK4-22" value="请求广告" style="text;html=1;strokeColor=none;fillColor=none;align=center;verticalAlign=middle;whiteSpace=wrap;rounded=0;" vertex="1" parent="1">
          <mxGeometry x="110" y="264" width="60" height="30" as="geometry" />
        </mxCell>
        <mxCell id="vLS6BRIMxcKvHYnKIGK4-23" value="行为上报" style="text;html=1;strokeColor=none;fillColor=none;align=center;verticalAlign=middle;whiteSpace=wrap;rounded=0;" vertex="1" parent="1">
          <mxGeometry x="90" y="163" width="60" height="30" as="geometry" />
        </mxCell>
        <mxCell id="vLS6BRIMxcKvHYnKIGK4-26" value="投放广告" style="text;html=1;strokeColor=none;fillColor=none;align=center;verticalAlign=middle;whiteSpace=wrap;rounded=0;" vertex="1" parent="1">
          <mxGeometry x="640" y="262" width="60" height="30" as="geometry" />
        </mxCell>
        <mxCell id="vLS6BRIMxcKvHYnKIGK4-27" value="下发广告" style="text;html=1;strokeColor=none;fillColor=none;align=center;verticalAlign=middle;whiteSpace=wrap;rounded=0;" vertex="1" parent="1">
          <mxGeometry x="110" y="320" width="60" height="30" as="geometry" />
        </mxCell>
        <mxCell id="vLS6BRIMxcKvHYnKIGK4-28" value="广告主" style="text;html=1;strokeColor=none;fillColor=none;align=center;verticalAlign=middle;whiteSpace=wrap;rounded=0;" vertex="1" parent="1">
          <mxGeometry x="720" y="320" width="60" height="30" as="geometry" />
        </mxCell>
        <mxCell id="vLS6BRIMxcKvHYnKIGK4-29" value="用户" style="text;html=1;strokeColor=none;fillColor=none;align=center;verticalAlign=middle;whiteSpace=wrap;rounded=0;" vertex="1" parent="1">
          <mxGeometry x="30" y="320" width="60" height="30" as="geometry" />
        </mxCell>
        <mxCell id="vLS6BRIMxcKvHYnKIGK4-30" value="算法工程师" style="text;html=1;strokeColor=none;fillColor=none;align=center;verticalAlign=middle;whiteSpace=wrap;rounded=0;" vertex="1" parent="1">
          <mxGeometry x="155" y="460" width="70" height="30" as="geometry" />
        </mxCell>
        <mxCell id="vLS6BRIMxcKvHYnKIGK4-31" value="平台运营" style="text;html=1;strokeColor=none;fillColor=none;align=center;verticalAlign=middle;whiteSpace=wrap;rounded=0;" vertex="1" parent="1">
          <mxGeometry x="295" y="460" width="70" height="30" as="geometry" />
        </mxCell>
        <mxCell id="vLS6BRIMxcKvHYnKIGK4-32" value="计费服务" style="rounded=1;whiteSpace=wrap;html=1;fillColor=#ffe6cc;strokeColor=#d79b00;" vertex="1" parent="1">
          <mxGeometry x="390" y="160" width="120" height="60" as="geometry" />
        </mxCell>
        <mxCell id="vLS6BRIMxcKvHYnKIGK4-35" value="投放效果" style="text;html=1;strokeColor=none;fillColor=none;align=center;verticalAlign=middle;whiteSpace=wrap;rounded=0;" vertex="1" parent="1">
          <mxGeometry x="640" y="320" width="60" height="30" as="geometry" />
        </mxCell>
      </root>
    </mxGraphModel>
  </diagram>
</mxfile>
